<?xml version="1.0" encoding="UTF-8" standalone="no"?>
<!-- Created with Inkscape (http://www.inkscape.org/) -->

<svg
   xmlns:dc="http://purl.org/dc/elements/1.1/"
   xmlns:cc="http://creativecommons.org/ns#"
   xmlns:rdf="http://www.w3.org/1999/02/22-rdf-syntax-ns#"
   xmlns:svg="http://www.w3.org/2000/svg"
   xmlns="http://www.w3.org/2000/svg"
   xmlns:sodipodi="http://sodipodi.sourceforge.net/DTD/sodipodi-0.dtd"
   xmlns:inkscape="http://www.inkscape.org/namespaces/inkscape"
   width="1024"
   height="128"
   id="svg3821"
   version="1.1"
   inkscape:version="0.48.3.1 r9886"
   inkscape:export-filename="/home/karora/projects/acal/res/drawable/alarmbell.png"
   inkscape:export-xdpi="45"
   inkscape:export-ydpi="45"
   sodipodi:docname="tab_icons.svg">
  <defs
     id="defs3823" />
  <sodipodi:namedview
     id="base"
     pagecolor="#000000"
     bordercolor="#666666"
     borderopacity="1.0"
     inkscape:pageopacity="0"
     inkscape:pageshadow="2"
     inkscape:zoom="0.95056013"
     inkscape:cx="480.29746"
     inkscape:cy="-30.484"
     inkscape:current-layer="layer1"
     showgrid="true"
     inkscape:document-units="px"
     inkscape:grid-bbox="true"
     inkscape:window-width="1844"
     inkscape:window-height="1009"
     inkscape:window-x="64"
     inkscape:window-y="0"
     inkscape:window-maximized="1" />
  <metadata
     id="metadata3826">
    <rdf:RDF>
      <cc:Work
         rdf:about="">
        <dc:format>image/svg+xml</dc:format>
        <dc:type
           rdf:resource="http://purl.org/dc/dcmitype/StillImage" />
        <dc:title></dc:title>
      </cc:Work>
    </rdf:RDF>
  </metadata>
  <g
     id="layer1"
     inkscape:label="Layer 1"
     inkscape:groupmode="layer"
     transform="translate(0,64)">
    <g
       id="g7118">
      <path
         d="m 33.323601,3.581509 49.090024,25.810218 c 0,0 0.233577,-4.593674 2.725061,-14.403893 2.491484,-9.810219 11.406325,-26.043795 12.652068,-33.673966 1.245743,-7.630171 1.401461,-11.367397 -1.712894,-15.571776 -3.114355,-4.204379 -10.28384,-8.635293 -16.194648,-8.875913 -5.910808,-0.240619 -11.678832,1.712897 -16.038929,7.163018 -4.360097,5.450121 -12.613139,20.710462 -17.44039,26.316302 -4.827251,5.605839 -13.080292,13.23601 -13.080292,13.23601 z M 18.29819,5.3212462 c 0.994078,4.1308884 6.118278,5.7534608 6.118278,5.7534608 9.994174,5.286302 22.61255,12.035252 31.902279,16.948947 0.606237,0.320662 1.745088,3.249205 -3.787129,5.426097 -3.515386,1.383282 -5.444461,4.291567 -5.538954,9.524638 -0.112088,6.207495 2.986942,8.784369 6.790704,10.464117 3.576881,1.579557 7.381188,0.62781 10.52793,-1.837586 3.140383,-2.460413 5.23067,-7.526213 3.268833,-11.399937 -2.382354,-4.70405 -1.460933,-7.258752 0.485377,-6.19434 5.121253,2.800747 9.699786,5.286307 14.549679,7.851602 0,0 3.02551,2.573663 7.208302,0.459057 4.182792,-2.114606 2.012471,-8.538857 5.207945,-21.121037 3.195473,-12.5821779 12.293506,-30.1326139 13.891246,-39.918753 1.59774,-9.786139 -0.38259,-17.226553 -4.37694,-22.618914 -3.99434,-5.392361 -15.213948,-12.632444 -24.507799,-12.785336 -9.293852,-0.152891 -17.158833,3.909785 -23.218066,9.80986 -6.059233,5.900075 -15.201028,24.575475 -22.991188,32.195015 C 24.922127,-3.4103735 17.304111,1.1903578 18.29819,5.3212462 z"
         style="fill:#000000;fill-opacity:0.92344498;fill-rule:evenodd;stroke:none"
         id="path6599"
         inkscape:connector-curvature="0" />
      <rect
         y="-64"
         x="0"
         height="128"
         width="128"
         id="rect7116"
         style="fill:none;stroke:none" />
    </g>
    <g
       id="g7274">
      <rect
         y="-64"
         x="256"
         height="128"
         width="128"
         id="rect7116-7"
         style="fill:none;stroke:none" />
      <path
         inkscape:connector-curvature="0"
         d="m 285.5031,-53.231515 41.39758,4.45486 -24.4474,33.68306 -5.5414,-12.441 c -2.75384,2.01912 -6.81553,6.53398 -9.56165,12.06071 -2.93051,5.89784 -4.41628,12.16506 -3.25965,20.86177 0.92224,6.93433 3.4564,11.86993 7.22556,16.84153 2.98026,3.931 5.6275,5.6911 8.96404,8.4751 1.80013,1.502 2.59414,3.9931 2.2546,6.1254 -0.25141,1.5789 -1.35819,3.803 -3.3004,4.9438 -1.59338,0.936 -4.53503,1.7533 -7.59227,-0.2987 -1.96663,-1.3201 -8.79124,-6.1943 -14.17949,-14.7364 -4.15971,-6.5945 -7.86259,-15.58381 -7.64528,-27.20993 0.21731,-11.62609 3.98289,-20.85663 9.32943,-28.25849 5.50736,-7.62448 10.84539,-11.12939 11.913,-11.85157 z m 68.99381,106.46303 -41.39758,-4.4549 24.44739,-33.6831 5.54141,12.441 c 2.75383,-2.0191 6.81552,-6.534 9.56164,-12.0607 2.93051,-5.89781 4.41628,-12.16503 3.25965,-20.86175 -0.92223,-6.93433 -3.45639,-11.8699 -7.22556,-16.8415 -2.98026,-3.931 -5.6275,-5.6911 -8.96404,-8.4751 -1.80013,-1.502 -2.59414,-3.9931 -2.25459,-6.1254 0.25141,-1.5789 1.35818,-3.803 3.30039,-4.9438 1.59338,-0.936 4.53503,-1.7533 7.59228,0.2988 1.96662,1.32 8.79123,6.1942 14.17948,14.7363 4.15972,6.5945 7.86259,15.58381 7.64528,27.2099 -0.21731,11.62605 -3.98289,20.85665 -9.32943,28.25845 -5.50735,7.6245 -10.84539,11.1294 -11.913,11.8516 z"
         style="fill:#000000;fill-opacity:1;fill-rule:evenodd;stroke:#ff0101;stroke-width:0.02;stroke-linecap:round;stroke-linejoin:round;stroke-miterlimit:4;stroke-opacity:1;stroke-dasharray:none"
         id="rect4291" />
    </g>
    <g
       id="g7250">
      <rect
         y="-64"
         x="512"
         height="128"
         width="128"
         id="rect7116-7-2"
         style="fill:none;stroke:none" />
      <path
         d="M 600,-3.3235198e-6 C 600,13.254831 589.25484,23.999997 576.00001,23.999997 562.74518,23.999997 552,13.254831 552,-3.3235198e-6 552,-13.254838 562.74518,-24.000003 576.00001,-24.000003 589.25484,-24.000003 600,-13.254838 600,-3.3235198e-6 z M 623.31348,24.624458 c -6.16721,11.703145 -9.43971,-6.465443 -18.65427,3.026137 -9.21456,9.491581 9.04298,12.224633 -2.47242,18.735702 -11.5154,6.511056 -4.44571,-10.542575 -17.32903,-7.539516 -12.8833,3.003059 0.99829,15.173019 -12.20921,14.42477 -13.20751,-0.748223 1.95977,-11.272496 -10.50193,-15.71141 -12.46172,-4.438912 -7.36334,13.30407 -18.06967,5.534093 -10.70634,-7.769976 7.74304,-8.423497 -0.34056,-18.895057 -8.08361,-10.471561 -13.38715,7.211174 -18.19314,-5.113627 -4.80597,-12.3248039 11.06795,-2.90009 9.92895,-16.0796534 -1.13901,-13.1795616 -15.16065,-1.1712137 -12.54041,-14.1378056 2.62026,-12.966591 10.87888,3.5440751 17.0461,-8.15907 6.16721,-11.703147 -12.12074,-9.181751 -2.90618,-18.673332 9.21454,-9.491581 7.23579,8.86302 18.75119,2.351957 11.51538,-6.511063 -5.2326,-14.277146 7.65072,-17.280206 12.88332,-3.003057 1.29545,11.36802 14.50295,12.116256 13.20753,0.748236 3.31689,-14.839649 15.77859,-10.400737 12.46173,4.438914 -5.05621,10.263755 5.65012,18.03373 10.70634,7.769976 10.81325,-10.690668 18.89685,-0.219108 8.08361,10.471561 -9.80257,5.900818 -4.99658,18.225621 4.80597,12.3248024 14.8765,-3.147476 16.01551,10.0320856 1.139,13.1795631 -11.43668,-0.3355852 -14.05693,12.631007 -2.62024,12.9665924 14.21657,5.3950194 8.04935,17.0981634 z"
         style="fill:#000000;fill-opacity:1;fill-rule:evenodd;stroke:none"
         id="path7245" />
    </g>
    <g
       id="g7370">
      <rect
         y="-64"
         x="768"
         height="128"
         width="128"
         id="rect7116-7-7"
         style="fill:none;stroke:none" />
      <g
         transform="matrix(0.82941281,0,0,0.82941281,195.42567,114.79082)"
         id="g7363">
        <g
           id="g7355">
          <path
             sodipodi:nodetypes="ccccc"
             inkscape:connector-curvature="0"
             id="rect7278"
             d="m 698,-122.46426 139,0 L 837,-21 698,-21 z"
             style="fill:none;stroke:#000000;stroke-width:8;stroke-miterlimit:4;stroke-opacity:1"
             transform="translate(0,-64)" />
          <path
             sodipodi:nodetypes="ccccccccccccccccccccccccc"
             inkscape:connector-curvature="0"
             d="m 701,-156.00004 133,0 0,51.00004 -133,0 z m 0,17.00004 133,0 0,17 -133,0 z m 19,-16.99995 19,0 0,67.99995 -19,0 z m 76,0 19,0 0,67.99995 -19,0 z m -38,0 19,0 0,67.99995 -19,0 z"
             style="fill:none;stroke:#000000;stroke-width:2;stroke-miterlimit:4;stroke-opacity:1;stroke-dasharray:none"
             id="rect7278-2-4" />
        </g>
        <text
           xml:space="preserve"
           style="font-size:24px;font-style:normal;font-variant:normal;font-weight:500;font-stretch:normal;text-align:start;line-height:125%;letter-spacing:0px;word-spacing:0px;text-anchor:start;fill:#000000;fill-opacity:1;stroke:none;font-family:LondonBetween;-inkscape-font-specification:LondonBetween Medium"
           x="732.0929"
           y="-163.39343"
           id="text7359"
           sodipodi:linespacing="125%"><tspan
             sodipodi:role="line"
             id="tspan7361"
             x="732.0929"
             y="-163.39343">August</tspan></text>
      </g>
    </g>
  </g>
</svg>
